<svg
  width="32"
  height="32"
  viewBox="0 0 32 32"
  fill="none"
  xmlns="http://www.w3.org/2000/svg"
>
  <defs>
    <linearGradient id="logoGrad" x1="0%" y1="0%" x2="100%" y2="100%">
      <stop offset="0%" stopColor="#34d399" />
      <stop offset="100%" stopColor="#059669" />
    </linearGradient>
  </defs>
  <path
    d="M16 2C8.268 2 2 8.268 2 16c0 5.3 2.94 9.92 7.28 12.28.38.2.82-.1.82-.54v-3.48c0-.6.38-1.12.94-1.32A10.02 10.02 0 0116 13a1 1 0 011 1v1.5c0 .83.67 1.5 1.5 1.5h1.5a1 1 0 011 1v2c0 .83.67 1.5 1.5 1.5h.5c.44 0 .74.44.54.82A13.98 13.98 0 0030 16c0-7.732-6.268-14-14-14z"
    fill="url(#logoGrad)"
  />
  <path
    d="M16 8c-4.418 0-8 3.582-8 8 0 2.21 1.34 4.1 2.5 5.5.38.46.96.5 1.5.15.54-.35.5-.95.12-1.4A5.99 5.99 0 0110 16c0-3.314 2.686-6 6-6 1.657 0 3 .895 3 2s-1.343 2-3 2v2c2.761 0 5-1.791 5-4s-2.239-4-5-4z"
    fill="#ffffff"
    opacity="0.9"
  />
</svg>
